<svg width="16" height="16" viewBox="0 0 16 16" fill="none" xmlns="http://www.w3.org/2000/svg">
<mask id="path-1-inside-1_7_586" fill="white">
<path d="M8.24623 2.15234C9.2983 2.15211 10.3325 2.42427 11.2482 2.94232C12.1639 3.46037 12.9298 4.20667 13.4715 5.10857C14.0132 6.01048 14.3122 7.03726 14.3393 8.08898C14.3664 9.1407 14.1208 10.1815 13.6263 11.1102L14.2913 13.1053C14.3464 13.2705 14.3544 13.4477 14.3144 13.6172C14.2744 13.7867 14.188 13.9416 14.0649 14.0648C13.9418 14.1879 13.7868 14.2743 13.6173 14.3143C13.4479 14.3543 13.2706 14.3463 13.1054 14.2912L11.1103 13.6262C10.293 14.0609 9.38751 14.3036 8.46242 14.3361C7.53734 14.3686 6.61701 14.1898 5.77131 13.8135C4.9256 13.4372 4.17674 12.8731 3.58158 12.1642C2.98641 11.4552 2.56057 10.62 2.33639 9.72191C2.11221 8.82381 2.09558 7.88645 2.28775 6.98096C2.47993 6.07547 2.87587 5.22567 3.44551 4.49604C4.01515 3.76642 4.74352 3.17616 5.57535 2.77007C6.40717 2.36398 7.32057 2.15272 8.24623 2.15234ZM8.24623 13.4023C9.15269 13.403 10.0432 13.1643 10.8279 12.7104C10.8853 12.677 10.9492 12.6563 11.0153 12.6495C11.0813 12.6428 11.1481 12.6501 11.2111 12.6711L13.4025 13.4023L12.6718 11.2109C12.6508 11.148 12.6433 11.0812 12.65 11.0152C12.6566 10.9491 12.6773 10.8852 12.7105 10.8277C13.2789 9.84507 13.5071 8.70229 13.3597 7.5767C13.2123 6.4511 12.6976 5.4056 11.8954 4.60238C11.0932 3.79916 10.0483 3.28313 8.92293 3.13433C7.79752 2.98553 6.65446 3.21229 5.67107 3.77942C4.68769 4.34656 3.91895 5.22237 3.48411 6.27099C3.04926 7.31961 2.97263 8.48242 3.26609 9.57904C3.55955 10.6757 4.20671 11.6448 5.10716 12.3361C6.00761 13.0273 7.11102 13.4022 8.24623 13.4023Z"/>
</mask>
<path d="M8.24623 2.15234C9.2983 2.15211 10.3325 2.42427 11.2482 2.94232C12.1639 3.46037 12.9298 4.20667 13.4715 5.10857C14.0132 6.01048 14.3122 7.03726 14.3393 8.08898C14.3664 9.1407 14.1208 10.1815 13.6263 11.1102L14.2913 13.1053C14.3464 13.2705 14.3544 13.4477 14.3144 13.6172C14.2744 13.7867 14.188 13.9416 14.0649 14.0648C13.9418 14.1879 13.7868 14.2743 13.6173 14.3143C13.4479 14.3543 13.2706 14.3463 13.1054 14.2912L11.1103 13.6262C10.293 14.0609 9.38751 14.3036 8.46242 14.3361C7.53734 14.3686 6.61701 14.1898 5.77131 13.8135C4.9256 13.4372 4.17674 12.8731 3.58158 12.1642C2.98641 11.4552 2.56057 10.62 2.33639 9.72191C2.11221 8.82381 2.09558 7.88645 2.28775 6.98096C2.47993 6.07547 2.87587 5.22567 3.44551 4.49604C4.01515 3.76642 4.74352 3.17616 5.57535 2.77007C6.40717 2.36398 7.32057 2.15272 8.24623 2.15234ZM8.24623 13.4023C9.15269 13.403 10.0432 13.1643 10.8279 12.7104C10.8853 12.677 10.9492 12.6563 11.0153 12.6495C11.0813 12.6428 11.1481 12.6501 11.2111 12.6711L13.4025 13.4023L12.6718 11.2109C12.6508 11.148 12.6433 11.0812 12.65 11.0152C12.6566 10.9491 12.6773 10.8852 12.7105 10.8277C13.2789 9.84507 13.5071 8.70229 13.3597 7.5767C13.2123 6.4511 12.6976 5.4056 11.8954 4.60238C11.0932 3.79916 10.0483 3.28313 8.92293 3.13433C7.79752 2.98553 6.65446 3.21229 5.67107 3.77942C4.68769 4.34656 3.91895 5.22237 3.48411 6.27099C3.04926 7.31961 2.97263 8.48242 3.26609 9.57904C3.55955 10.6757 4.20671 11.6448 5.10716 12.3361C6.00761 13.0273 7.11102 13.4022 8.24623 13.4023Z" fill="white"/>
<path d="M8.24623 2.15234L8.24582 1.15234L8.24601 1.15234L8.24623 2.15234ZM13.6263 11.1102L12.6776 11.4264L12.5419 11.0191L12.7436 10.6402L13.6263 11.1102ZM14.2913 13.1053L13.3427 13.4216L13.3427 13.4215L14.2913 13.1053ZM13.1054 14.2912L13.4216 13.3425L13.4218 13.3426L13.1054 14.2912ZM11.1103 13.6262L10.6407 12.7433L11.0195 12.5418L11.4265 12.6775L11.1103 13.6262ZM8.24623 13.4023L8.24639 12.4023H8.24691L8.24623 13.4023ZM10.8279 12.7104L11.3295 13.5754L11.3286 13.5759L10.8279 12.7104ZM11.2111 12.6711L11.5269 11.7223L11.5276 11.7225L11.2111 12.6711ZM13.4025 13.4023L14.3511 13.086L14.9841 14.9843L13.0859 14.3509L13.4025 13.4023ZM12.6718 11.2109L13.6202 10.8937L13.6205 10.8946L12.6718 11.2109ZM12.7105 10.8277L11.8446 10.3274L11.8449 10.3271L12.7105 10.8277ZM8.24601 1.15234C9.47073 1.15208 10.6747 1.46889 11.7406 2.07196L10.7558 3.81268C9.99036 3.37965 9.12587 3.15215 8.24645 3.15234L8.24601 1.15234ZM11.7406 2.07196C12.8065 2.67502 13.6982 3.54379 14.3288 4.5937L12.6143 5.62345C12.1615 4.86955 11.5212 4.24572 10.7558 3.81268L11.7406 2.07196ZM14.3288 4.5937C14.9594 5.64361 15.3074 6.83889 15.339 8.0632L13.3396 8.11476C13.3169 7.23563 13.067 6.37735 12.6143 5.62345L14.3288 4.5937ZM15.339 8.0632C15.3705 9.28751 15.0846 10.4991 14.509 11.5802L12.7436 10.6402C13.157 9.86392 13.3623 8.99389 13.3396 8.11476L15.339 8.0632ZM14.575 10.7939L15.24 12.789L13.3427 13.4215L12.6776 11.4264L14.575 10.7939ZM15.24 12.7889C15.3538 13.1303 15.3704 13.4966 15.2877 13.8469L13.3412 13.3875C13.3385 13.3988 13.339 13.4106 13.3427 13.4216L15.24 12.7889ZM15.2877 13.8469C15.205 14.1971 15.0265 14.5174 14.772 14.7719L13.3578 13.3577C13.3496 13.3659 13.3438 13.3762 13.3412 13.3875L15.2877 13.8469ZM14.772 14.7719C14.5176 15.0263 14.1973 15.2049 13.847 15.2876L13.3876 13.341C13.3763 13.3437 13.366 13.3495 13.3578 13.3577L14.772 14.7719ZM13.847 15.2876C13.4968 15.3702 13.1304 15.3537 12.789 15.2399L13.4218 13.3426C13.4108 13.3389 13.3989 13.3384 13.3876 13.341L13.847 15.2876ZM12.7892 15.2399L10.7941 14.5749L11.4265 12.6775L13.4216 13.3425L12.7892 15.2399ZM11.5799 14.5091C10.6285 15.0151 9.57439 15.2977 8.49749 15.3355L8.42736 13.3367C9.20063 13.3096 9.95757 13.1066 10.6407 12.7433L11.5799 14.5091ZM8.49749 15.3355C7.4206 15.3733 6.34924 15.1652 5.36476 14.7271L6.17786 12.8999C6.88478 13.2145 7.65408 13.3638 8.42736 13.3367L8.49749 15.3355ZM5.36476 14.7271C4.38027 14.2891 3.50852 13.6325 2.81568 12.8072L4.34747 11.5212C4.84497 12.1138 5.47093 12.5853 6.17786 12.8999L5.36476 14.7271ZM2.81568 12.8072C2.12285 11.9819 1.62713 11.0096 1.36616 9.9641L3.30662 9.47973C3.49401 10.2304 3.84997 10.9286 4.34747 11.5212L2.81568 12.8072ZM1.36616 9.9641C1.10519 8.91862 1.08583 7.82743 1.30954 6.77335L3.26596 7.18857C3.10532 7.94547 3.11923 8.72901 3.30662 9.47973L1.36616 9.9641ZM1.30954 6.77335C1.53326 5.71927 1.99417 4.73001 2.65729 3.88065L4.23373 5.11144C3.75757 5.72133 3.4266 6.43168 3.26596 7.18857L1.30954 6.77335ZM2.65729 3.88065C3.32041 3.0313 4.16831 2.34418 5.13664 1.87144L6.01406 3.6687C5.31874 4.00815 4.70989 4.50155 4.23373 5.11144L2.65729 3.88065ZM5.13664 1.87144C6.10496 1.39871 7.16826 1.15279 8.24582 1.15234L8.24664 3.15234C7.47289 3.15266 6.70937 3.32925 6.01406 3.6687L5.13664 1.87144ZM8.24691 12.4023C8.97731 12.4028 9.69489 12.2105 10.3271 11.8448L11.3286 13.5759C10.3916 14.118 9.32806 14.4031 8.24555 14.4023L8.24691 12.4023ZM10.3262 11.8453C10.5062 11.7409 10.7063 11.676 10.9133 11.6547L11.1172 13.6443C11.192 13.6367 11.2644 13.6132 11.3295 13.5754L10.3262 11.8453ZM10.9133 11.6547C11.1203 11.6335 11.3295 11.6566 11.5269 11.7223L10.8952 13.6199C10.9666 13.6437 11.0423 13.652 11.1172 13.6443L10.9133 11.6547ZM11.5276 11.7225L13.719 12.4538L13.0859 14.3509L10.8945 13.6197L11.5276 11.7225ZM12.4538 13.7186L11.7232 11.5272L13.6205 10.8946L14.3511 13.086L12.4538 13.7186ZM11.7235 11.5281C11.6575 11.3308 11.6341 11.1218 11.655 10.9148L13.6449 11.1156C13.6525 11.0407 13.644 10.9651 13.6202 10.8937L11.7235 11.5281ZM11.655 10.9148C11.6759 10.7078 11.7405 10.5076 11.8446 10.3274L13.5763 11.328C13.614 11.2629 13.6374 11.1905 13.6449 11.1156L11.655 10.9148ZM11.8449 10.3271C12.303 9.53496 12.4869 8.61382 12.3682 7.70652L14.3512 7.44687C14.5272 8.79077 14.2547 10.1552 13.5761 11.3284L11.8449 10.3271ZM12.3682 7.70652C12.2494 6.79922 11.8345 5.95648 11.1878 5.30904L12.6029 3.89572C13.5607 4.85471 14.1753 6.10298 14.3512 7.44687L12.3682 7.70652ZM11.1878 5.30904C10.5412 4.6616 9.699 4.24564 8.79186 4.1257L9.05401 2.14296C10.3977 2.32061 11.6452 2.93673 12.6029 3.89572L11.1878 5.30904ZM8.79186 4.1257C7.88471 4.00576 6.96333 4.18854 6.17066 4.64569L5.17149 2.91316C6.34559 2.23604 7.71033 1.9653 9.05401 2.14296L8.79186 4.1257ZM6.17066 4.64569C5.37799 5.10283 4.75834 5.80879 4.40783 6.65404L2.56038 5.88794C3.07955 4.63595 3.99738 3.59029 5.17149 2.91316L6.17066 4.64569ZM4.40783 6.65404C4.05732 7.49929 3.99555 8.43659 4.2321 9.32053L2.30008 9.83755C1.94971 8.52825 2.0412 7.13992 2.56038 5.88794L4.40783 6.65404ZM4.2321 9.32053C4.46865 10.2045 4.99029 10.9856 5.71611 11.5429L4.49821 13.1293C3.42312 12.3039 2.65046 11.1468 2.30008 9.83755L4.2321 9.32053ZM5.71611 11.5429C6.44193 12.1001 7.33135 12.4022 8.24639 12.4023L8.24606 14.4023C6.8907 14.4021 5.57329 13.9546 4.49821 13.1293L5.71611 11.5429Z" fill="white" mask="url(#path-1-inside-1_7_586)"/>
</svg>
