<svg width="16" height="15" viewBox="0 0 16 15" fill="none" xmlns="http://www.w3.org/2000/svg">
<path d="M12.5078 1.5C12.11 1.5 11.7285 1.65804 11.4472 1.93934C11.1658 2.22064 11.0078 2.60218 11.0078 3C11.0082 3.25317 11.0727 3.50211 11.1953 3.72363L8.2832 7H4.9209C4.81757 6.70773 4.62622 6.45465 4.37317 6.27558C4.12012 6.09651 3.81781 6.00023 3.50781 6C3.10999 6 2.72846 6.15804 2.44715 6.43934C2.16585 6.72064 2.00781 7.10218 2.00781 7.5C2.00781 7.89782 2.16585 8.27936 2.44715 8.56066C2.72846 8.84196 3.10999 9 3.50781 9C3.81765 8.99957 4.11974 8.9032 4.37259 8.72414C4.62544 8.54508 4.81664 8.29211 4.91992 8H8.2832L11.1943 11.2754C11.072 11.4973 11.0078 11.7466 11.0078 12C11.0078 12.3978 11.1658 12.7794 11.4472 13.0607C11.7285 13.342 12.11 13.5 12.5078 13.5C12.9056 13.5 13.2872 13.342 13.5685 13.0607C13.8498 12.7794 14.0078 12.3978 14.0078 12C14.0078 11.6022 13.8498 11.2206 13.5685 10.9393C13.2872 10.658 12.9056 10.5 12.5078 10.5C12.3139 10.5002 12.1219 10.538 11.9424 10.6113L9.17676 7.5L11.9424 4.38867C12.1219 4.46198 12.3139 4.49979 12.5078 4.5C12.9056 4.5 13.2872 4.34196 13.5685 4.06066C13.8498 3.77936 14.0078 3.39782 14.0078 3C14.0078 2.60218 13.8498 2.22064 13.5685 1.93934C13.2872 1.65804 12.9056 1.5 12.5078 1.5Z" fill="white"/>
<path d="M12.5078 1.5C12.11 1.5 11.7285 1.65804 11.4472 1.93934C11.1658 2.22064 11.0078 2.60218 11.0078 3C11.0082 3.25317 11.0727 3.50211 11.1953 3.72363L8.2832 7H4.9209C4.81757 6.70773 4.62622 6.45465 4.37317 6.27558C4.12012 6.09651 3.81781 6.00023 3.50781 6C3.10999 6 2.72846 6.15804 2.44715 6.43934C2.16585 6.72064 2.00781 7.10218 2.00781 7.5C2.00781 7.89782 2.16585 8.27936 2.44715 8.56066C2.72846 8.84196 3.10999 9 3.50781 9C3.81765 8.99957 4.11974 8.9032 4.37259 8.72414C4.62544 8.54508 4.81664 8.29211 4.91992 8H8.2832L11.1943 11.2754C11.072 11.4973 11.0078 11.7466 11.0078 12C11.0078 12.3978 11.1658 12.7794 11.4472 13.0607C11.7285 13.342 12.11 13.5 12.5078 13.5C12.9056 13.5 13.2872 13.342 13.5685 13.0607C13.8498 12.7794 14.0078 12.3978 14.0078 12C14.0078 11.6022 13.8498 11.2206 13.5685 10.9393C13.2872 10.658 12.9056 10.5 12.5078 10.5C12.3139 10.5002 12.1219 10.538 11.9424 10.6113L9.17676 7.5L11.9424 4.38867C12.1219 4.46198 12.3139 4.49979 12.5078 4.5C12.9056 4.5 13.2872 4.34196 13.5685 4.06066C13.8498 3.77936 14.0078 3.39782 14.0078 3C14.0078 2.60218 13.8498 2.22064 13.5685 1.93934C13.2872 1.65804 12.9056 1.5 12.5078 1.5Z" stroke="white"/>
</svg>
