<svg width="17" height="17" viewBox="0 0 17 17" fill="none" xmlns="http://www.w3.org/2000/svg">
<path d="M15.9477 8.04498C15.9251 7.99404 15.3789 6.78239 14.1647 5.56816C12.5468 3.95027 10.5033 3.09521 8.25414 3.09521C6.00495 3.09521 3.96147 3.95027 2.34357 5.56816C1.12935 6.78239 0.580591 7.99597 0.560601 8.04498C0.531269 8.11095 0.516113 8.18235 0.516113 8.25455C0.516113 8.32675 0.531269 8.39815 0.560601 8.46412C0.58317 8.51506 1.12935 9.72607 2.34357 10.9403C3.96147 12.5575 6.00495 13.4126 8.25414 13.4126C10.5033 13.4126 12.5468 12.5575 14.1647 10.9403C15.3789 9.72607 15.9251 8.51506 15.9477 8.46412C15.977 8.39815 15.9922 8.32675 15.9922 8.25455C15.9922 8.18235 15.977 8.11095 15.9477 8.04498ZM8.25414 12.3809C6.26934 12.3809 4.53537 11.6593 3.09997 10.2368C2.511 9.65107 2.00993 8.98319 1.61233 8.25391C2.00982 7.52456 2.51091 6.85666 3.09997 6.27103C4.53537 4.84853 6.26934 4.12695 8.25414 4.12695C10.239 4.12695 11.9729 4.84853 13.4083 6.27103C13.9984 6.85652 14.5006 7.52441 14.8992 8.25391C14.4343 9.12186 12.4088 12.3809 8.25414 12.3809ZM8.25414 5.15869C7.64197 5.15869 7.04354 5.34022 6.53453 5.68033C6.02553 6.02044 5.62881 6.50384 5.39454 7.06942C5.16027 7.635 5.09897 8.25734 5.2184 8.85775C5.33783 9.45817 5.63262 10.0097 6.0655 10.4426C6.49837 10.8754 7.04989 11.1702 7.6503 11.2896C8.25071 11.4091 8.87306 11.3478 9.43863 11.1135C10.0042 10.8792 10.4876 10.4825 10.8277 9.97352C11.1678 9.46451 11.3494 8.86608 11.3494 8.25391C11.3485 7.43327 11.0221 6.64648 10.4418 6.0662C9.86157 5.48592 9.07478 5.15954 8.25414 5.15869ZM8.25414 10.3174C7.84603 10.3174 7.44708 10.1964 7.10774 9.96962C6.7684 9.74289 6.50392 9.42062 6.34774 9.04356C6.19156 8.66651 6.1507 8.25162 6.23032 7.85134C6.30994 7.45107 6.50646 7.08339 6.79505 6.79481C7.08363 6.50623 7.4513 6.3097 7.85158 6.23008C8.25186 6.15046 8.66675 6.19132 9.0438 6.3475C9.42085 6.50368 9.74312 6.76816 9.96986 7.1075C10.1966 7.44684 10.3176 7.84579 10.3176 8.25391C10.3176 8.80117 10.1002 9.32603 9.71324 9.713C9.32627 10.1 8.80141 10.3174 8.25414 10.3174Z" fill="white"/>
</svg>
