<svg width="21" height="27" viewBox="0 0 21 27" fill="none" xmlns="http://www.w3.org/2000/svg">
<path d="M19.2131 12.1307C18.6647 10.8207 17.8674 9.64493 16.8712 8.67693L16.0491 7.87645C16.0212 7.85001 15.9876 7.83125 15.9513 7.82182C15.9149 7.81238 15.877 7.81255 15.8407 7.82232C15.8045 7.83209 15.771 7.85115 15.7433 7.87784C15.7156 7.90453 15.6945 7.93802 15.6819 7.97538L15.3146 9.09366C15.0858 9.7952 14.6649 10.5117 14.0688 11.2163C14.0293 11.2612 13.9841 11.2732 13.953 11.2762C13.9219 11.2792 13.8739 11.2732 13.8315 11.2313C13.792 11.1953 13.7722 11.1413 13.775 11.0874C13.8795 9.28253 13.371 7.24686 12.258 5.0313C11.3371 3.19049 10.0573 1.75443 8.4584 0.753077L7.29169 0.0245507C7.13914 -0.0713869 6.94421 0.0545311 6.95269 0.243408L7.01484 1.68247C7.05721 2.66583 6.94986 3.53527 6.69562 4.2578C6.38487 5.14222 5.93852 5.96369 5.36788 6.70121C4.97075 7.21377 4.52064 7.67737 4.02601 8.08331C2.83474 9.05518 1.86608 10.3005 1.19256 11.7259C0.52071 13.1639 0.170742 14.747 0.169922 16.3519C0.169922 17.767 0.432645 19.1371 0.95244 20.4293C1.45434 21.6734 2.17865 22.8025 3.0853 23.7541C4.00059 24.7135 5.06278 25.469 6.24645 25.9937C7.47249 26.5393 8.77197 26.8151 10.1138 26.8151C11.4557 26.8151 12.7552 26.5393 13.9812 25.9967C15.162 25.4751 16.2357 24.7144 17.1424 23.7571C18.0577 22.7977 18.7752 21.6765 19.2752 20.4323C19.7942 19.1437 20.0605 17.7563 20.0578 16.3549C20.0578 14.8919 19.7753 13.4708 19.2131 12.1307Z" fill="#FF9500"/>
</svg>
