<svg width="19" height="18" viewBox="0 0 19 18" fill="none" xmlns="http://www.w3.org/2000/svg">
<path id="Vector" d="M17.2327 -0.0079434C16.958 0.00276685 16.6973 0.152992 16.5058 0.410905L5.62309 14.6517L2.14145 10.0958C2.04402 9.96297 1.92733 9.85696 1.7982 9.78393C1.66908 9.7109 1.53011 9.67232 1.38945 9.67045C1.24879 9.66857 1.10925 9.70345 0.979016 9.77302C0.848781 9.8426 0.730465 9.94548 0.630996 10.0756C0.531526 10.2058 0.452904 10.3606 0.399733 10.5311C0.346563 10.7015 0.319913 10.8841 0.321344 11.0681C0.322775 11.2522 0.352258 11.4341 0.408068 11.603C0.463877 11.772 0.54489 11.9247 0.646363 12.0522L4.87555 17.5864C5.07384 17.8458 5.34273 17.9915 5.62309 17.9915C5.90346 17.9915 6.17235 17.8458 6.37064 17.5864L18.0009 2.36733C18.1537 2.17299 18.258 1.92279 18.3003 1.64951C18.3425 1.37623 18.3207 1.09263 18.2377 0.835862C18.1546 0.579095 18.0142 0.361145 17.8349 0.210574C17.6556 0.060004 17.4457 -0.0161622 17.2327 -0.0079434Z" fill="white"/>
</svg>
