<svg width="27" height="28" viewBox="0 0 27 28" fill="none" xmlns="http://www.w3.org/2000/svg">
<path d="M17.9138 3.08402H8.79952C4.8406 3.08402 2.48047 5.50931 2.48047 9.57755V18.9323C2.48047 23.0117 4.8406 25.437 8.79952 25.437H17.9029C21.8618 25.437 24.2219 23.0117 24.2219 18.9434V9.57755C24.2328 5.50931 21.8727 3.08402 17.9138 3.08402ZM17.7724 16.4958C17.6092 16.6634 17.4026 16.7417 17.1959 16.7417C16.9893 16.7417 16.7826 16.6523 16.6195 16.4958L13.3566 13.1428L10.0938 16.4958C9.77838 16.8199 9.25632 16.8199 8.94091 16.4958C8.6255 16.1717 8.6255 15.6352 8.94091 15.3111L12.7802 11.3658C13.0956 11.0417 13.6177 11.0417 13.9331 11.3658L17.7724 15.3111C18.0878 15.6352 18.0878 16.1605 17.7724 16.4958Z" fill="#34C759"/>
</svg>
