<svg width="30" height="30" viewBox="0 0 30 30" fill="none" xmlns="http://www.w3.org/2000/svg">
<g id="Google Forms New Logo">
<rect width="30" height="30" fill="#FFFAFA"/>
<path id="Vector" d="M6.5998 1.20001C5.6056 1.20001 4.7998 2.00581 4.7998 3.00001V27C4.7998 27.9942 5.6056 28.8 6.5998 28.8H23.3998C24.394 28.8 25.1998 27.9942 25.1998 27V10.8V9.00001V8.75158L17.6482 1.20001H17.3998H15.5998H6.5998ZM17.3998 2.64845L23.7514 9.00001H18.5998C17.9368 9.00001 17.3998 8.46301 17.3998 7.80001V2.64845ZM11.0998 14.7C11.5966 14.7 11.9998 15.1032 11.9998 15.6C11.9998 16.0968 11.5966 16.5 11.0998 16.5C10.603 16.5 10.1998 16.0968 10.1998 15.6C10.1998 15.1032 10.603 14.7 11.0998 14.7ZM13.1998 15H19.7998V16.2H13.1998V15ZM11.0998 17.7C11.5966 17.7 11.9998 18.1032 11.9998 18.6C11.9998 19.0968 11.5966 19.5 11.0998 19.5C10.603 19.5 10.1998 19.0968 10.1998 18.6C10.1998 18.1032 10.603 17.7 11.0998 17.7ZM13.1998 18H19.7998V19.2H13.1998V18ZM11.0998 20.7C11.5966 20.7 11.9998 21.1032 11.9998 21.6C11.9998 22.0968 11.5966 22.5 11.0998 22.5C10.603 22.5 10.1998 22.0968 10.1998 21.6C10.1998 21.1032 10.603 20.7 11.0998 20.7ZM13.1998 21H19.7998V22.2H13.1998V21Z" fill="black"/>
</g>
</svg>
