<svg width="27" height="28" viewBox="0 0 27 28" fill="none" xmlns="http://www.w3.org/2000/svg">
<path d="M18.7947 3.21849H7.91855C4.91673 3.21849 2.48047 5.71084 2.48047 8.78437V15.4679V16.5855C2.48047 19.6591 4.91673 22.1514 7.91855 22.1514H9.54998C9.84363 22.1514 10.2352 22.3526 10.4201 22.5985L12.0515 24.8226C12.7693 25.8061 13.9439 25.8061 14.6618 24.8226L16.2932 22.5985C16.4998 22.3191 16.8261 22.1514 17.1633 22.1514H18.7947C21.7965 22.1514 24.2328 19.6591 24.2328 16.5855V8.78437C24.2328 5.71084 21.7965 3.21849 18.7947 3.21849ZM9.00617 14.395C8.3971 14.395 7.91855 13.892 7.91855 13.2773C7.91855 12.6626 8.40798 12.1597 9.00617 12.1597C9.60436 12.1597 10.0938 12.6626 10.0938 13.2773C10.0938 13.892 9.61523 14.395 9.00617 14.395ZM13.3566 14.395C12.7476 14.395 12.269 13.892 12.269 13.2773C12.269 12.6626 12.7584 12.1597 13.3566 12.1597C13.9548 12.1597 14.4443 12.6626 14.4443 13.2773C14.4443 13.892 13.9657 14.395 13.3566 14.395ZM17.7071 14.395C17.098 14.395 16.6195 13.892 16.6195 13.2773C16.6195 12.6626 17.1089 12.1597 17.7071 12.1597C18.3053 12.1597 18.7947 12.6626 18.7947 13.2773C18.7947 13.892 18.3162 14.395 17.7071 14.395Z" fill="#5856D6"/>
</svg>
