<svg width="30" height="30" viewBox="0 0 30 30" fill="none" xmlns="http://www.w3.org/2000/svg">
<g id="Picture">
<rect width="30" height="30" fill="#F7F2F2"/>
<path id="Vector" d="M4 5C2.895 5 2 5.895 2 7V23C2 24.105 2.895 25 4 25H26C27.105 25 28 24.105 28 23V7C28 5.895 27.105 5 26 5H4ZM23 8C24.105 8 25 8.895 25 10C25 11.105 24.105 12 23 12C21.895 12 21 11.105 21 10C21 8.895 21.895 8 23 8ZM9 12.002C9.61925 12.002 10.2384 12.2384 10.7109 12.7109L13.9727 15.9727L15 17L16.1562 18.1562C16.5782 18.5782 17.2596 18.5743 17.6816 18.1523C18.1046 17.7303 18.1046 17.0441 17.6816 16.6211L16.5293 15.4707L17.2891 14.7109C18.2341 13.7659 19.7659 13.7659 20.7109 14.7109L25 19V22H5V15L7.28906 12.7109C7.76156 12.2384 8.38075 12.002 9 12.002Z" fill="black"/>
</g>
</svg>
